# AST/ASF file generated using VICON BodyLanguage
# -----------------------------------------------
:version 1.10
:name VICON
:units
  mass 1.0
  length 0.45
  angle deg
:documentation
   .ast/.asf automatically generated from VICON data using
   VICON BodyBuilder and BodyLanguage model FoxedUp or BRILLIANT.MOD
:root
   order TX TY TZ RX RY RZ
   axis XYZ
   position 0 0 0  
   orientation 0 0 0 
:bonedata
  begin
     id 1 
     name lhipjoint
     direction 0.584852 -0.759097 0.285867 
     length 2.43633 
     axis 0 0 0  XYZ
  end
  begin
     id 2 
     name lfemur
     direction 0.34202 -0.939693 0  
     length 7.14704  
     axis 0 0 20  XYZ
    dof rx ry rz
    limits (-160.0 20.0)
           (-70.0 70.0)
           (-60.0 70.0)
  end
  begin
     id 3 
     name ltibia
     direction 0.342022 -0.939692 0   
     length 7.68483   
     axis 0 0 20   XYZ
    dof rx
    limits (-10.0 170.0)
  end
  begin
     id 4 
     name lfoot
     direction 0.0999605 -0.274639 0.956337   
     length 2.40452   
     axis -90 7.62852e-016 20   XYZ
    dof rx rz
    limits (-45.0 90.0)
           (-70.0 20.0)
  end
  begin
     id 5 
     name ltoes
     direction 1.53468e-011 -4.21881e-011 1   
     length 1.19837   
     axis -90 7.62852e-016 20   XYZ
    dof rx
    limits (-90.0 20.0)
  end
  begin
     id 6 
     name rhipjoint
     direction -0.569886 -0.769002 0.289597   
     length 2.40495  
     axis 0 0 0  XYZ 
  end
  begin
     id 7 
     name rfemur
     direction -0.34202 -0.939693 0   
     length 7.45086   
     axis 0 0 -20   XYZ
    dof rx ry rz
    limits (-160.0 20.0)
           (-70.0 70.0)
           (-70.0 60.0)
  end
  begin
     id 8 
     name rtibia
     direction -0.34202 -0.939693 0   
     length 7.76831   
     axis 0 0 -20   XYZ
    dof rx
    limits (-10.0 170.0)
 end
 begin
     id 9 
     name rfoot
     direction -0.0798572 -0.219406 0.97236   
     length 2.35911  
     axis -90 -7.62852e-016 -20   XYZ
    dof rx rz
    limits (-45.0 90.0)
           (-20.0 70.0)
  end
  begin
     id 10 
     name rtoes
     direction -1.53469e-011 -4.21728e-011 1   
     length 1.18261   
     axis -90 -7.62852e-016 -20   XYZ
    dof rx
    limits (-90.0 20.0)
  end
  begin
     id 11 
     name lowerback
     direction 0.0242088 0.999437 0.0232389   
     length 2.1561   
     axis 0 0 0   XYZ
    dof rx ry rz
    limits (-20.0 45.0)
           (-30.0 30.0)
           (-30.0 30.0)
  end
  begin
     id 12 
     name upperback
     direction -0.0356893 0.999013 -0.0264323   
     length 2.14431   
     axis 0 0 0   XYZ
    dof rx ry rz
    limits (-20.0 45.0)
           (-30.0 30.0)
           (-30.0 30.0)
  end
  begin
     id 13 
     name thorax
     direction -0.0472163 0.998194 -0.0371284   
     length 2.16169   
     axis 0 0 0   XYZ
    dof rx ry rz
    limits (-20.0 45.0)
           (-30.0 30.0)
           (-30.0 30.0)
  end
  begin
     id 14 
     name lowerneck
     direction 0.00863244 0.999921 0.00911972   
     length 1.58651   
     axis 0 0 0   XYZ
    dof rx ry rz
    limits (-20.0 45.0)
           (-30.0 30.0)
           (-30.0 30.0)
  end
  begin
     id 15 
     name upperneck
     direction 0.149523 0.979068 -0.138086   
     length 1.57486   
     axis 0 0 0   XYZ
    dof rx ry rz
    limits (-20.0 45.0)
           (-30.0 30.0)
           (-30.0 30.0)
  end
  begin
     id 16
     name head
     direction 0.0445219 0.997708 -0.0509576  
     length 1.6019  
     axis 0 0 0   XYZ
    dof rx ry rz
    limits (-20.0 45.0)
           (-30.0 30.0)
           (-30.0 30.0)
  end
  begin
     id 17 
     name lclavicle
     direction 0.911271 0.381667 -0.154644  
     length 3.80848  
     axis 0 0 0   XYZ
    dof ry rz
    limits (-20.0 10.0)
           (0.0 20.0)
  end
  begin
     id 18 
     name lhumerus
     direction 1 -4.49003e-011 2.1308e-027   
     length 5.19069   
     axis 180 -30 -90   XYZ
    dof rx ry rz
    limits (-60.0 90.0)
           (-90.0 90.0)
           (-90.0 90.0)
  end
  begin
     id 19
     name lradius
     direction 1 -4.48914e-011 4.01554e-027   
     length 3.30016   
     axis 180 -30 -90   XYZ
    dof rx
    limits (-10.0 170.0)
  end
  begin
     id 20
     name lwrist
     direction 1 -4.49003e-011 1.1934e-026   
     length 1.65008   
     axis -8.46377e-015 90 90   XYZ
    dof ry
    limits (-180.0 0.0)
 end
  begin
     id 21 
     name lhand
     direction 1 -4.49034e-011 2.38659e-026   
     length 0.707698   
     axis -1.52313e-014 90 90   XYZ
    dof rx rz
    limits (-90.0 90.0)
           (-45.0 45.0)
  end
  begin
     id 22 
     name lfingers
     direction 1 -4.48691e-011 4.77775e-026   
     length 0.570564   
     axis -3.04623e-014 90 90   XYZ
    dof rx
    limits (0.0 90.0)
  end
  begin
     id 23
     name lthumb
     direction 0.707107 -6.34832e-011 0.707107   
     length 0.819219   
     axis -90 45 -1.62303e-014   XYZ
    dof rx rz
    limits (-45.0 45.0)
           (-45.0 45.0)
  end
  begin
     id 24 
     name rclavicle
     direction -0.815579 0.573708 -0.0754329   
     length 3.54371  
     axis 0 0 0   XYZ 
    dof ry rz
    limits (-10.0 20.0)
           (-20.0 0.0)
  end
  begin
     id 25 
     name rhumerus
     direction -1 -4.48956e-011 3.05351e-028  
     length 5.23924   
     axis 180 30 90   XYZ
    dof rx ry rz
    limits (-90.0 60.0)
           (-90.0 90.0)
           (-90.0 90.0)
  end
  begin
     id 26 
     name rradius
     direction -1 -4.49013e-011 3.53849e-027   
     length 3.32953   
     axis 180 30 90   XYZ
    dof rx
    limits (-10.0 170.0)
  end
  begin
     id 27 
     name rwrist
     direction -1 -4.48901e-011 1.19374e-026   
     length 1.66477   
     axis -8.46377e-015 -90 -90   XYZ
    dof ry
    limits (-180.0 0.0)
  end
  begin
     id 28
     name rhand
     direction -1 -4.48877e-011 2.38764e-026   
     length 0.607414   
     axis -1.52313e-014 -90 -90   XYZ
    dof rx rz
    limits (-90.0 90.0)
           (-45.0 45.0)
  end
  begin
     id 29
     name rfingers
     direction -1 -4.48882e-011 4.77521e-026   
     length 0.489712   
     axis -3.04623e-014 -90 -90   XYZ
    dof rx
    limits (0.0 90.0)
  end
  begin
     id 30
     name rthumb
     direction -0.707107 -6.34974e-011 0.707107   
     length 0.703132   
     axis -90 -45 1.62303e-014   XYZ
    dof rx rz
    limits (-45.0 45.0)
           (-45.0 45.0)
  end
:hierarchy
  begin
    root lhipjoint rhipjoint lowerback
    lhipjoint lfemur
    lfemur ltibia
    ltibia lfoot
    lfoot ltoes
    rhipjoint rfemur
    rfemur rtibia
    rtibia rfoot
    rfoot rtoes
    lowerback upperback
    upperback thorax
    thorax lowerneck lclavicle rclavicle
    lowerneck upperneck
    upperneck head
    lclavicle lhumerus
    lhumerus lradius
    lradius lwrist
    lwrist lhand lthumb
    lhand lfingers
    rclavicle rhumerus
    rhumerus rradius
    rradius rwrist
    rwrist rhand rthumb
    rhand rfingers
  end

#!OML:ASF E:\VariousWalksJay\Project 1\Capture day 1\Session 1\Actor2.ASF
:FULLY-SPECIFIED
:DEGREES
505
root 10.6703 17.7902 -5.39465 -4.5616 -24.2916 5.30846
lowerback -6.0381 -7.16524 0.0675266
upperback 1.16292 -9.55315 -0.273739
thorax 4.50169 -4.73038 -1.25183
lowerneck -8.09721 0.973043 1.77838
upperneck 7.10675 0.268012 8.60206
head 3.79648 0.542834 2.59483
rclavicle 1.08288e-013 -6.36111e-015
rhumerus -76.0563 23.6795 -92.8024
rradius 32.2723
rwrist 5.66615
rhand -3.19584 8.18962
rfingers 7.12502
rthumb 22.526 -20.5164
lclavicle 1.08288e-013 -6.36111e-015
lhumerus 27.8489 -48.3733 46.6147
lradius 106.594
lwrist 20.3983
lhand -5.21452 -21.6765
lfingers 7.12502
lthumb 20.5873 7.25175
rfemur -47.5238 4.2553 20.1815
rtibia 28.3271
rfoot -27.2321 -5.00912
rtoes -24.4219
lfemur 17.8715 14.9824 -30.0393
ltibia -6.36111e-015
lfoot -4.12606 4.91612
ltoes -10.7951
506
root 10.6449 17.7252 -5.27689 -4.53353 -24.336 5.35021
lowerback -6.27317 -7.16484 0.243388
upperback 1.17651 -9.56822 -0.230317
thorax 4.62612 -4.73103 -1.336
lowerneck -8.0075 1.11806 1.98067
upperneck 7.07455 0.464982 8.40037
head 3.757 0.634409 2.49611
rclavicle 6.24308e-014 2.38542e-015
rhumerus -76.3102 23.4191 -92.8221
rradius 32.2206
rwrist 5.79222
rhand -3.32984 8.24938
rfingers 7.12502
rthumb 22.3974 -20.4722
lclavicle 6.24308e-014 2.38542e-015
lhumerus 27.6433 -48.6618 46.765
lradius 106.989
lwrist 20.4297
lhand -5.18364 -21.7299
lfingers 7.12502
lthumb 20.617 7.19517
rfemur -46.9928 4.61393 19.8728
rtibia 28.3954
rfoot -27.2645 -5.13524
rtoes -24.3708
lfemur 18.3444 15.1531 -30.073
ltibia 6.36111e-015
lfoot -4.91464 4.76095
ltoes -10.8082
507
root 10.6192 17.6568 -5.1603 -4.4659 -24.326 5.33126
lowerback -6.49622 -7.19463 0.449175
upperback 1.18071 -9.62778 -0.167734
thorax 4.73166 -4.75322 -1.41852
lowerneck -7.89609 1.26936 2.17992
upperneck 7.03966 0.671917 8.20075
head 3.71308 0.730394 2.39905
rclavicle 7.51406e-014 -5.56597e-015
rhumerus -76.4811 23.2175 -92.8631
rradius 32.1011
rwrist 5.93739
rhand -3.4601 8.29969
rfingers 7.12502
rthumb 22.2723 -20.4368
lclavicle 7.51406e-014 -5.56597e-015
lhumerus 27.2895 -48.972 47.0174
lradius 107.372
lwrist 20.4572
lhand -5.18695 -21.7551
lfingers 7.12502
lthumb 20.6138 7.17037
rfemur -46.4535 4.95885 19.578
rtibia 28.4567
rfoot -27.289 -5.32755
rtoes -24.3293
lfemur 18.8079 15.2649 -30.0643
ltibia -2.54444e-014
lfoot -5.76255 4.65854
ltoes -10.7314
508
root 10.5929 17.5859 -5.04492 -4.36042 -24.2662 5.26663
lowerback -6.70987 -7.24118 0.663549
upperback 1.1802 -9.71216 -0.0903016
thorax 4.82745 -4.7876 -1.49154
lowerneck -7.79166 1.41624 2.38978
upperneck 7.00984 0.871024 8.00038
head 3.67382 0.823147 2.29996
rclavicle 1.03766e-013 -9.54166e-015
rhumerus -76.5535 23.0317 -92.901
rradius 31.9222
rwrist 6.08402
rhand -3.59718 8.33762
rfingers 7.12502
rthumb 22.1407 -20.4146
lclavicle 1.03766e-013 -9.54166e-015
lhumerus 26.8607 -49.3157 47.323
lradius 107.734
lwrist 20.4512
lhand -5.21018 -21.7737
lfingers 7.12502
lthumb 20.5915 7.15413
rfemur -45.9139 5.28152 19.2965
rtibia 28.5069
rfoot -27.303 -5.58086
rtoes -24.3417
lfemur 18.3544 15.3296 -30.0358
ltibia 1.7323
lfoot -7.49062 4.507
ltoes -10.5381
509
root 10.5658 17.513 -4.93066 -4.21898 -24.1664 5.16643
lowerback -6.91329 -7.30949 0.86527
upperback 1.16999 -9.82666 0.0131646
thorax 4.91307 -4.83758 -1.53275
lowerneck -7.68711 1.56357 2.58656
upperneck 6.98617 1.07228 7.79689
head 3.63775 0.916788 2.20277
rclavicle -1.50828e-014 2.38542e-015
rhumerus -76.5424 22.8934 -92.9312
rradius 31.7018
rwrist 6.21192
rhand -3.742 8.35935
rfingers 7.12502
rthumb 22.0017 -20.4093
lclavicle -1.50828e-014 2.38542e-015
lhumerus 26.3252 -49.6657 47.7238
lradius 108.062
lwrist 20.3735
lhand -5.22792 -21.8037
lfingers 7.12502
lthumb 20.5744 7.12602
rfemur -45.3821 5.58117 19.0314
rtibia 28.5475
rfoot -27.3072 -5.88401
rtoes -24.3209
lfemur 17.8498 15.3479 -29.9753
ltibia 3.5281
lfoot -9.28547 4.38598
ltoes -10.2776
510
root 10.5378 17.4388 -4.81755 -4.04256 -24.0402 5.04535
lowerback -7.11213 -7.3959 1.04987
upperback 1.14663 -9.96552 0.13587
thorax 4.98778 -4.90041 -1.54668
lowerneck -7.57369 1.71385 2.76351
upperneck 6.96199 1.27974 7.60157
head 3.60065 1.01319 2.11236
rclavicle -1.01728e-013 -6.36111e-015
rhumerus -76.4619 22.8009 -92.9648
rradius 31.457
rwrist 6.30944
rhand -3.9035 8.35187
rfingers 7.12502
rthumb 21.8466 -20.4349
lclavicle -1.01728e-013 -6.36111e-015
lhumerus 25.6818 -50.0147 48.2172
lradius 108.346
lwrist 20.2112
lhand -5.23462 -21.8556
lfingers 7.12502
lthumb 20.568 7.07474
rfemur -44.8726 5.86746 18.7757
rtibia 28.5859
rfoot -27.2997 -6.21717
rtoes -24.2684
lfemur 17.6426 15.3308 -29.8931
ltibia 4.69797
lfoot -10.7976 4.32199
ltoes -9.96855
511
root 10.5088 17.3642 -4.70505 -3.84244 -23.9024 4.9235
lowerback -7.3071 -7.48212 1.21001
upperback 1.11897 -10.1029 0.261466
thorax 5.06029 -4.9632 -1.54426
lowerneck -7.46768 1.85531 2.94143
upperneck 6.93353 1.47486 7.41052
head 3.56495 1.10379 2.02288
rclavicle -5.69642e-015 7.15625e-015
rhumerus -76.3113 22.7091 -92.9947
rradius 31.2092
rwrist 6.37933
rhand -4.0809 8.3434
rfingers 7.12502
rthumb 21.6763 -20.4631
lclavicle -5.69642e-015 7.15625e-015
lhumerus 25.0125 -50.3768 48.7337
lradius 108.589
lwrist 19.9791
lhand -5.22432 -21.9211
lfingers 7.12502
lthumb 20.5779 7.00823
rfemur -44.3902 6.14682 18.5177
rtibia 28.6314
rfoot -27.275 -6.55005
rtoes -24.1966
lfemur 17.5532 15.2967 -29.8099
ltibia 5.59132
lfoot -12.1819 4.28737
ltoes -9.62715
512
root 10.4789 17.2899 -4.59294 -3.6265 -23.7675 4.81078
lowerback -7.49165 -7.56395 1.34496
upperback 1.08189 -10.2327 0.387687
thorax 5.12159 -5.02313 -1.5253
lowerneck -7.36855 1.98828 3.12559
upperneck 6.9021 1.65804 7.21696
head 3.53095 1.18867 1.93113
rclavicle 3.9055e-014 -1.74931e-014
rhumerus -76.1162 22.6211 -93.0292
rradius 30.9791
rwrist 6.42417
rhand -4.27583 8.33262
rfingers 7.12502
rthumb 21.4891 -20.4954
lclavicle 3.9055e-014 -1.74931e-014
lhumerus 24.3017 -50.7419 49.3059
lradius 108.769
lwrist 19.6884
lhand -5.181 -22.0115
lfingers 7.12502
lthumb 20.6195 6.91329
rfemur -43.9367 6.42871 18.2508
rtibia 28.6964
rfoot -27.2353 -6.84121
rtoes -24.0655
lfemur 17.5434 15.2616 -29.7345
ltibia 6.28434
lfoot -13.4573 4.27408
ltoes -9.29098
513
root 10.4484 17.2164 -4.48063 -3.40509 -23.6385 4.72309
lowerback -7.67615 -7.6197 1.46534
upperback 1.04925 -10.3257 0.486941
thorax 5.18586 -5.0648 -1.52265
lowerneck -7.29522 2.09776 3.33404
upperneck 6.86218 1.80471 7.03818
head 3.50108 1.25693 1.8388
rclavicle 4.06142e-014 -8.74653e-015
rhumerus -75.8649 22.4639 -93.065
rradius 30.7758
rwrist 6.45626
rhand -4.49382 8.32691
rfingers 7.12502
rthumb 21.2797 -20.5249
lclavicle 4.06142e-014 -8.74653e-015
lhumerus 23.6629 -51.1407 49.8305
lradius 108.891
lwrist 19.3858
lhand -5.1123 -22.1072
lfingers 7.12502
lthumb 20.6855 6.81041
rfemur -43.5138 6.7098 17.9636
rtibia 28.7916
rfoot -27.1798 -7.08116
rtoes -23.9075
lfemur 17.6056 15.2306 -29.6826
ltibia 6.80189
lfoot -14.6214 4.27813
ltoes -8.9775
514
root 10.4172 17.1445 -4.36773 -3.18427 -23.5211 4.65823
lowerback -7.84812 -7.6611 1.56997
upperback 1.01586 -10.3974 0.569138
thorax 5.24234 -5.09639 -1.52493
lowerneck -7.23762 2.1953 3.54911
upperneck 6.81959 1.93321 6.86745
head 3.47461 1.3169 1.74766
rclavicle 1.89467e-014 -8.74653e-015
rhumerus -75.5862 22.2891 -93.1242
rradius 30.6182
rwrist 6.47252
rhand -4.73159 8.33787
rfingers 7.12502
rthumb 21.0513 -20.5395
lclavicle 1.89467e-014 -8.74653e-015
lhumerus 23.0644 -51.5485 50.3209
lradius 108.965
lwrist 19.1187
lhand -5.03551 -22.198
lfingers 7.12502
lthumb 20.7593 6.71162
rfemur -43.1143 6.98675 17.6631
rtibia 28.9247
rfoot -27.1038 -7.26007
rtoes -23.7303
lfemur 17.7376 15.2099 -29.6499
ltibia 7.1644
lfoot -15.6681 4.29826
ltoes -8.72545
515
root 10.3855 17.075 -4.25381 -2.9699 -23.4133 4.61877
lowerback -8.00847 -7.67795 1.66723
upperback 0.983431 -10.4346 0.625452
thorax 5.29054 -5.11094 -1.54402
lowerneck -7.19717 2.2722 3.77221
upperneck 6.77447 2.03096 6.71131
head 3.45198 1.36264 1.65903
rclavicle -1.13832e-013 1.35174e-014
rhumerus -75.2961 22.0668 -93.2119
rradius 30.5165
rwrist 6.45547
rhand -4.99413 8.3639
rfingers 7.12502
rthumb 20.7991 -20.5413
lclavicle -1.13832e-013 1.35174e-014
lhumerus 22.5622 -51.9863 50.7334
lradius 108.991
lwrist 18.932
lhand -4.96988 -22.2803
lfingers 7.12502
lthumb 20.8224 6.62234
rfemur -42.7276 7.25529 17.3469
rtibia 29.0932
rfoot -27.0066 -7.38872
rtoes -23.5094
lfemur 17.9302 15.1982 -29.6368
ltibia 7.40154
lfoot -16.5962 4.32732
ltoes -8.543
